<svg id="Layer_1" data-name="Layer 1" xmlns="http://www.w3.org/2000/svg" viewBox="0 0 293.3 49.6"><title>nco-logo-white</title><path d="M47.4,0,44.3,4.5a24.67,24.67,0,0,1-.1,40.6l3.1,4.5a30,30,0,0,0,13-24.8A29.71,29.71,0,0,0,47.4,0Z" style="fill:#fff"/><path d="M16.1,4.5,13,0A30.31,30.31,0,0,0,0,24.8,29.92,29.92,0,0,0,13,49.6l3.1-4.5a24.74,24.74,0,0,1,0-40.6Z" style="fill:#fff"/><path d="M80.1,15a9.57,9.57,0,0,1,3.8.8,9.9,9.9,0,0,1,6,9v9.9H86V24.8a5.93,5.93,0,0,0-.5-2.3,5.86,5.86,0,0,0-1.3-1.9,6.41,6.41,0,0,0-1.9-1.3,5.54,5.54,0,0,0-4.6,0,6.25,6.25,0,0,0-3.2,3.2,5.93,5.93,0,0,0-.5,2.3v9.9H70.1V15H74v2a11.74,11.74,0,0,1,2.7-1.5A14,14,0,0,1,80.1,15Z" style="fill:#fff"/><path d="M112.1,15.1V34.7h-3.9v-2a11.74,11.74,0,0,1-2.7,1.5,10.73,10.73,0,0,1-3.2.5,9.57,9.57,0,0,1-3.8-.8,9.9,9.9,0,0,1-6-9,9.57,9.57,0,0,1,.8-3.8,9.9,9.9,0,0,1,9-6,11.27,11.27,0,0,1,3.2.5,7.2,7.2,0,0,1,2.7,1.5v-2Zm-9.8,15.7a5.93,5.93,0,0,0,2.3-.5,5.86,5.86,0,0,0,1.9-1.3,6.41,6.41,0,0,0,1.3-1.9,5.54,5.54,0,0,0,0-4.6,5.86,5.86,0,0,0-1.3-1.9,9.06,9.06,0,0,0-1.9-1.3,5.54,5.54,0,0,0-4.6,0,5.86,5.86,0,0,0-1.9,1.3,6.41,6.41,0,0,0-1.3,1.9,5.54,5.54,0,0,0,0,4.6A5.86,5.86,0,0,0,98.1,29a6.41,6.41,0,0,0,1.9,1.3A5.93,5.93,0,0,0,102.3,30.8Z" style="fill:#fff"/><path d="M143.4,34.7h-3.9V22.9a4,4,0,0,0-.3-1.5,5.67,5.67,0,0,0-.8-1.3,6,6,0,0,0-1.3-.9,3.9,3.9,0,0,0-3,0,3.81,3.81,0,0,0-1.3.9,6,6,0,0,0-.9,1.3,4,4,0,0,0-.3,1.5V34.7h-3.9V22.9a4,4,0,0,0-.3-1.5,3.81,3.81,0,0,0-.9-1.3,6,6,0,0,0-1.3-.9,2.7,2.7,0,0,0-1.5-.3,3.34,3.34,0,0,0-1.5.3,2.73,2.73,0,0,0-1.2.9,3.53,3.53,0,0,0-.8,1.3,4,4,0,0,0-.3,1.5V34.7H116V15h3.9v1.1a14.17,14.17,0,0,1,1.8-.8,7.61,7.61,0,0,1,2.1-.3,7.51,7.51,0,0,1,5.9,2.7,8.6,8.6,0,0,1,2.6-2,7.25,7.25,0,0,1,3.3-.7,7.8,7.8,0,0,1,7.3,4.8,8.15,8.15,0,0,1,.6,3.1V34.7Z" style="fill:#fff"/><path d="M155.8,15.1a9.21,9.21,0,0,1,3.8.8,9.9,9.9,0,0,1,6,9v2H150.2a8,8,0,0,0,.8,1.6,4.89,4.89,0,0,0,1.3,1.2,8,8,0,0,0,1.6.8,5.66,5.66,0,0,0,1.8.3,5.93,5.93,0,0,0,2.3-.5,5.86,5.86,0,0,0,1.9-1.3l2.8,2.8a9.45,9.45,0,0,1-3.1,2.1,10,10,0,0,1-3.8.8,9.57,9.57,0,0,1-3.8-.8,9.9,9.9,0,0,1-6-9,9.21,9.21,0,0,1,.8-3.8,9.91,9.91,0,0,1,5.2-5.2A8.12,8.12,0,0,1,155.8,15.1Zm0,3.9a5.66,5.66,0,0,0-1.8.3,8,8,0,0,0-1.6.8,8,8,0,0,0-1.3,1.3,4.81,4.81,0,0,0-.8,1.6h11.1a5.07,5.07,0,0,0-.9-1.6,8,8,0,0,0-1.3-1.3A6.08,6.08,0,0,0,155.8,19Z" style="fill:#fff"/><path d="M184.3,23.3a5,5,0,0,1,1.9,1.3,6.41,6.41,0,0,1,1.3,1.9,5.54,5.54,0,0,1,0,4.6,5.86,5.86,0,0,1-1.3,1.9,6.41,6.41,0,0,1-1.9,1.3,5.93,5.93,0,0,1-2.3.5H168.2v-4H182a2.35,2.35,0,0,0,.8-.2c.2-.1.5-.2.6-.4a2.09,2.09,0,0,0,.4-.6,1.88,1.88,0,0,0,.2-.8,2.35,2.35,0,0,0-.2-.8c-.1-.2-.2-.5-.4-.6a2.09,2.09,0,0,0-.6-.4,1.88,1.88,0,0,0-.8-.2h-7.9a5.93,5.93,0,0,1-2.3-.5,5,5,0,0,1-1.9-1.3,6.41,6.41,0,0,1-1.3-1.9,5.54,5.54,0,0,1,0-4.6,5.86,5.86,0,0,1,1.3-1.9,6.41,6.41,0,0,1,1.9-1.3,5.93,5.93,0,0,1,2.3-.5H184v4h-9.9a2.35,2.35,0,0,0-.8.2c-.2.1-.5.2-.6.4a2.09,2.09,0,0,0-.4.6,1.88,1.88,0,0,0-.2.8,2.35,2.35,0,0,0,.2.8c.1.2.2.5.4.6a2.09,2.09,0,0,0,.6.4,1.88,1.88,0,0,0,.8.2H182A8.56,8.56,0,0,1,184.3,23.3Z" style="fill:#fff"/><path d="M193.9,30a4.25,4.25,0,0,1,1.1.2,2.36,2.36,0,0,1,.9.6,3.49,3.49,0,0,1,.6.9,3.59,3.59,0,0,1,.2,1.1,4.25,4.25,0,0,1-.2,1.1,2.36,2.36,0,0,1-.6.9,3.49,3.49,0,0,1-.9.6,3.59,3.59,0,0,1-1.1.2,4.25,4.25,0,0,1-1.1-.2,2.36,2.36,0,0,1-.9-.6,1.46,1.46,0,0,1-.6-.9,3.59,3.59,0,0,1-.2-1.1,4.25,4.25,0,0,1,.2-1.1,2.36,2.36,0,0,1,.6-.9,7,7,0,0,1,.9-.6A5.16,5.16,0,0,1,193.9,30Z" style="fill:#fff"/><path d="M216.7,31.9a9.45,9.45,0,0,1-3.1,2.1,10,10,0,0,1-3.8.8A9.21,9.21,0,0,1,206,34a9.9,9.9,0,0,1-6-9,9.57,9.57,0,0,1,.8-3.8,9.9,9.9,0,0,1,9-6,9.21,9.21,0,0,1,3.8.8,9.45,9.45,0,0,1,3.1,2.1l-2.8,2.8a6.41,6.41,0,0,0-1.9-1.3,5.54,5.54,0,0,0-4.6,0,6.25,6.25,0,0,0-3.2,3.2,5.54,5.54,0,0,0,0,4.6,6.25,6.25,0,0,0,3.2,3.2,5.54,5.54,0,0,0,4.6,0,5.86,5.86,0,0,0,1.9-1.3Z" style="fill:#fff"/><path d="M228.7,15a9.57,9.57,0,0,1,3.8.8,9.9,9.9,0,0,1,6,9,9.21,9.21,0,0,1-.8,3.8,9.9,9.9,0,0,1-9,6,9.57,9.57,0,0,1-3.8-.8,9.9,9.9,0,0,1-6-9,9.57,9.57,0,0,1,.8-3.8,9.91,9.91,0,0,1,5.2-5.2A9.21,9.21,0,0,1,228.7,15Zm5.9,9.8a5.93,5.93,0,0,0-.5-2.3,5.86,5.86,0,0,0-1.3-1.9,6.41,6.41,0,0,0-1.9-1.3,5.54,5.54,0,0,0-4.6,0,5.86,5.86,0,0,0-1.9,1.3,6.41,6.41,0,0,0-1.3,1.9,5.54,5.54,0,0,0,0,4.6,5.86,5.86,0,0,0,1.3,1.9,6.41,6.41,0,0,0,1.9,1.3,5.54,5.54,0,0,0,4.6,0,5.86,5.86,0,0,0,1.9-1.3,6.41,6.41,0,0,0,1.3-1.9,5.56,5.56,0,0,0,.5-2.3Z" style="fill:#fff"/><path d="M244.4,30a4.25,4.25,0,0,1,1.1.2,2.36,2.36,0,0,1,.9.6,3.49,3.49,0,0,1,.6.9,3.59,3.59,0,0,1,.2,1.1,4.25,4.25,0,0,1-.2,1.1,2.36,2.36,0,0,1-.6.9,2.84,2.84,0,0,1-.9.6,3.59,3.59,0,0,1-1.1.2,4.25,4.25,0,0,1-1.1-.2,2.36,2.36,0,0,1-.9-.6,1.46,1.46,0,0,1-.6-.9,3.59,3.59,0,0,1-.2-1.1,4.25,4.25,0,0,1,.2-1.1,2.36,2.36,0,0,1,.6-.9,7,7,0,0,1,.9-.6A5.16,5.16,0,0,1,244.4,30Z" style="fill:#fff"/><path d="M270.1,15v9.9a9.21,9.21,0,0,1-.8,3.8,9.9,9.9,0,0,1-9,6,9.57,9.57,0,0,1-3.8-.8,9.9,9.9,0,0,1-6-9V15h3.9v9.9a5.93,5.93,0,0,0,.5,2.3,5.86,5.86,0,0,0,1.3,1.9,6.41,6.41,0,0,0,1.9,1.3,5.54,5.54,0,0,0,4.6,0,5.86,5.86,0,0,0,1.9-1.3,6.41,6.41,0,0,0,1.3-1.9,5.93,5.93,0,0,0,.5-2.3h0V15Z" style="fill:#fff"/><path d="M286.9,25.5a9.39,9.39,0,0,1,2.6,1.4,8,8,0,0,1,2,2.1,9.05,9.05,0,0,1,1.3,2.6,10.47,10.47,0,0,1,.5,3h-3.9a5.93,5.93,0,0,0-.5-2.3,5,5,0,0,0-1.3-1.9,6.41,6.41,0,0,0-1.9-1.3,5.93,5.93,0,0,0-2.3-.5h-5.9v5.9h-3.9V7.2h3.9V24.8h2a5.93,5.93,0,0,0,2.3-.5,5.86,5.86,0,0,0,1.9-1.3,6.41,6.41,0,0,0,1.3-1.9,5.93,5.93,0,0,0,.5-2.3V14.9h3.9V19a8.12,8.12,0,0,1-.7,3.5A14.92,14.92,0,0,1,286.9,25.5Z" style="fill:#fff"/></svg>